<?xml version="1.0" encoding="utf-8"?>
<!-- Generator: Adobe Illustrator 19.0.0, SVG Export Plug-In . SVG Version: 6.00 Build 0)  -->
<svg version="1.1" id="Layer_1" xmlns="http://www.w3.org/2000/svg" xmlns:xlink="http://www.w3.org/1999/xlink" x="0px" y="0px"
	 viewBox="0 0 55.1 46.1" style="enable-background:new 0 0 55.1 46.1;" xml:space="preserve">
<style type="text/css">
	.Drop_x0020_Shadow{fill:none;}
	.Outer_x0020_Glow_x0020_5_x0020_pt{fill:none;}
	.Blue_x0020_Neon{fill:none;stroke:#8AACDA;stroke-width:7;stroke-linecap:round;stroke-linejoin:round;}
	.Chrome_x0020_Highlight{fill:url(#SVGID_1_);stroke:#FFFFFF;stroke-width:0.3629;stroke-miterlimit:1;}
	.Jive_GS{fill:#FFDD00;}
	.Alyssa_GS{fill:#A6D0E4;}
	.st0{fill:#FFFFFF;stroke:#D0D8DD;stroke-width:0.9128;stroke-miterlimit:10;}
	.st1{fill:#FFFFFF;stroke:#D0D8DD;stroke-miterlimit:10;}
</style>
<linearGradient id="SVGID_1_" gradientUnits="userSpaceOnUse" x1="-12.3628" y1="-9.5965" x2="-12.3628" y2="-10.5965">
	<stop  offset="0" style="stop-color:#656565"/>
	<stop  offset="0.618" style="stop-color:#1B1B1B"/>
	<stop  offset="0.6292" style="stop-color:#545454"/>
	<stop  offset="0.9831" style="stop-color:#3E3E3E"/>
</linearGradient>
<path id="XMLID_3_" class="st0" d="M32.3,44.4h19c1.1,0,2-0.9,2-2v-19c0-1.1-0.9-2-2-2h-19c-1.1,0-2,0.9-2,2v19
	C30.3,43.5,31.2,44.4,32.3,44.4z"/>
<path id="XMLID_1_" class="st1" d="M4.8,37h28.1c1.7,0,3-1.3,3-3V4.8c0-1.7-1.3-3-3-3H4.8c-1.6,0-3,1.4-3,3V34
	C1.8,35.6,3.2,37,4.8,37z"/>
<path id="XMLID_4_" class="st1" d="M41.4,16.3h10.7c0.6,0,1.1-0.5,1.1-1.1V4.1c0-0.6-0.5-1.1-1.1-1.1H41.4c-0.6,0-1.1,0.5-1.1,1.1
	v11.1C40.2,15.8,40.7,16.3,41.4,16.3z"/>
</svg>
